<svg width="51" height="51" viewBox="0 0 51 51" fill="none" xmlns="http://www.w3.org/2000/svg">
<path d="M38.6888 15.9362V22.1654C38.6888 22.1654 34.543 22.1862 34.5221 22.1654V15.9362H28.2721C28.2721 15.9362 28.293 11.7904 28.2721 11.7695H34.5221V5.51953H38.6888V11.7695H44.9388V15.9362H38.6888ZM32.4388 24.2695V18.0195H26.1888V11.7695H9.52214C7.23047 11.7695 5.35547 13.6445 5.35547 15.9362V40.9362C5.35547 43.2279 7.23047 45.1029 9.52214 45.1029H34.5221C36.8138 45.1029 38.6888 43.2279 38.6888 40.9362V24.2695H32.4388ZM9.52214 40.9362L15.7721 32.6029L19.9388 38.8529L26.1888 30.5195L34.5221 40.9362H9.52214Z" fill="#3272EC"/>
</svg>
